<svg xmlns="http://www.w3.org/2000/svg" viewBox="0 0 298 298"><defs><style>.cls-1{fill:#fff;}</style></defs><title>just logo white</title><g id="Layer_2" data-name="Layer 2"><g id="Layer_1-2" data-name="Layer 1"><polygon class="cls-1" points="204.62 139.55 204.62 116.98 159.93 91.7 116.15 115.63 116.15 141.58 185.89 168.37 160.38 182.59 116.15 158.89 116.15 182.59 160.38 206.51 204.62 181.01 204.62 157.31 136.01 129.85 160.38 115.17 204.62 139.55"/><polygon class="cls-1" points="223.77 76.15 161.49 40.91 74.23 87.77 74.56 211.05 161.15 257.08 223.77 221.66 223.77 193.07 160.78 228.71 99.44 196.1 99.44 102.6 161.59 69.56 223.77 104.74 223.77 76.15"/><path class="cls-1" d="M149,0A149,149,0,1,0,298,149,149,149,0,0,0,149,0Zm0,284.23A135.23,135.23,0,1,1,284.23,149,135.24,135.24,0,0,1,149,284.23Z"/></g></g></svg>