<svg xmlns="http://www.w3.org/2000/svg" viewBox="0 0 582.73 107"><defs><style>.cls-1,.cls-2{fill:#fff;}.cls-2{font-size:68.93px;font-family:Montserrat-Medium, Montserrat;font-weight:500;}.cls-3{letter-spacing:-0.01em;}.cls-4{letter-spacing:0em;}.cls-5{letter-spacing:-0.01em;}.cls-6{letter-spacing:-0.02em;}.cls-7{letter-spacing:-0.01em;}</style></defs><title>Asset 3</title><g id="Layer_2" data-name="Layer 2"><g id="Layer_1-2" data-name="Layer 1"><polygon class="cls-1" points="73.47 50.11 73.47 42 57.42 32.93 41.7 41.52 41.7 50.84 66.75 60.46 57.59 65.56 41.7 57.05 41.7 65.56 57.59 74.15 73.47 64.99 73.47 56.48 48.84 46.62 57.59 41.35 73.47 50.11"/><polygon class="cls-1" points="80.35 27.34 57.98 14.69 26.65 31.52 26.77 75.78 57.86 92.31 80.35 79.59 80.35 69.32 57.73 82.12 35.71 70.41 35.71 36.84 58.02 24.98 80.35 37.61 80.35 27.34"/><text class="cls-2" transform="translate(125.76 74.49) scale(0.97 1)"><tspan class="cls-3">C</tspan><tspan class="cls-4" x="49.36" y="0">ass</tspan><tspan class="cls-5" x="159.65" y="0">a</tspan><tspan class="cls-6" x="200.18" y="0">v</tspan><tspan x="237.54" y="0">a</tspan><tspan class="cls-7" x="278.76" y="0">S</tspan><tspan class="cls-6" x="320.88" y="0">w</tspan><tspan class="cls-4" x="381.68" y="0">ap</tspan></text><path class="cls-1" d="M53.5,0A53.5,53.5,0,1,0,107,53.5,53.5,53.5,0,0,0,53.5,0Zm0,102.05A48.55,48.55,0,1,1,102.05,53.5,48.54,48.54,0,0,1,53.5,102.05Z"/></g></g></svg>